<?xml version="1.0" encoding="utf-8"?>
<!-- Generator: Adobe Illustrator 24.1.0, SVG Export Plug-In . SVG Version: 6.00 Build 0)  -->
<svg version="1.1" id="Layer_1" xmlns="http://www.w3.org/2000/svg" xmlns:xlink="http://www.w3.org/1999/xlink" x="0px" y="0px"
	 viewBox="0 0 62.4 62.1" style="enable-background:new 0 0 62.4 62.1;" xml:space="preserve">
<style type="text/css">
	.st0{fill:url(#SVGID_1_);stroke:#D45D6F;stroke-linecap:round;stroke-miterlimit:10;stroke-dasharray:3;}
	.st1{fill:#D45D6F;}
	.st2{fill:#FFFFFF;}
</style>
<linearGradient id="SVGID_1_" gradientUnits="userSpaceOnUse" x1="-680.4748" y1="-242.1766" x2="-659.2248" y2="-220.9266" gradientTransform="matrix(0.71 -0.71 0.71 0.71 675.8483 -279.7917)">
	<stop  offset="0.4527" style="stop-color:#8E5565"/>
	<stop  offset="0.5702" style="stop-color:#895665;stop-opacity:0.7854"/>
	<stop  offset="0.708" style="stop-color:#7B5866;stop-opacity:0.5336"/>
	<stop  offset="0.8554" style="stop-color:#635D68;stop-opacity:0.2642"/>
	<stop  offset="1" style="stop-color:#45626A;stop-opacity:0"/>
</linearGradient>
<polyline class="st0" points="51.3,-1.4 18.4,31.5 51.1,64.2 "/>
<circle class="st1" cx="18.4" cy="31.4" r="14.1"/>
<path class="st2" d="M26.7,26.3l-3.9,2.2v-0.2c0-1.4-1.1-2.5-2.4-2.5l0,0l0,0h-9.1c-1.4,0-2.5,1.1-2.5,2.5v6.2
	c0,1.4,1.1,2.5,2.5,2.5h9.1c1.4,0,2.5-1.1,2.5-2.4l0,0l0,0v-0.2l3.9,2.2c0.4,0.2,0.8,0.1,1.1-0.3C28,36.2,28,36,28,35.9v-4.5v-4.5
	c0-0.4-0.3-0.8-0.8-0.8C27,26.2,26.9,26.2,26.7,26.3z"/>
</svg>
