<?xml version="1.0" encoding="utf-8"?>
<!-- Generator: Adobe Illustrator 24.1.0, SVG Export Plug-In . SVG Version: 6.00 Build 0)  -->
<svg version="1.1" id="Layer_1" xmlns="http://www.w3.org/2000/svg" xmlns:xlink="http://www.w3.org/1999/xlink" x="0px" y="0px"
	 viewBox="0 0 62.4 62.1" style="enable-background:new 0 0 62.4 62.1;" xml:space="preserve">
<style type="text/css">
	.st0{fill:url(#SVGID_1_);stroke:#D45D6F;stroke-width:0.9172;stroke-linecap:round;stroke-miterlimit:10;stroke-dasharray:2.7515;}
	.st1{fill:#D45D6F;}
	.st2{fill:#FFFFFF;}
</style>
<linearGradient id="SVGID_1_" gradientUnits="userSpaceOnUse" x1="-1075.1855" y1="65.3342" x2="-1055.6958" y2="84.8241" gradientTransform="matrix(-0.7071 0.7071 -0.7071 -0.7071 -673.2152 837.7643)">
	<stop  offset="0.6194" style="stop-color:#8E5565"/>
	<stop  offset="0.721" style="stop-color:#7A4E5A;stop-opacity:0.733"/>
	<stop  offset="0.9282" style="stop-color:#463A3E;stop-opacity:0.1887"/>
	<stop  offset="1" style="stop-color:#333333;stop-opacity:0"/>
</linearGradient>
<polyline class="st0" points="12.8,61.4 43,31.2 13,1.2 "/>
<circle class="st1" cx="43" cy="31.2" r="14.1"/>
<path class="st2" d="M34.7,36.3l3.9-2.2v0.2c0,1.4,1.1,2.5,2.4,2.5c0,0,0,0,0,0l0,0h9.1c1.4,0,2.5-1.1,2.5-2.5l0-6.2
	c0-1.4-1.1-2.5-2.5-2.5H41c-1.4,0-2.5,1.1-2.5,2.4c0,0,0,0,0,0l0,0v0.2L34.7,26c-0.4-0.2-0.8-0.1-1.1,0.3c-0.1,0.1-0.1,0.3-0.1,0.4
	l0,4.5v4.5c0,0.4,0.3,0.8,0.8,0.8C34.4,36.4,34.6,36.4,34.7,36.3z"/>
</svg>
