<?xml version="1.0" encoding="utf-8"?>
<!-- Generator: Adobe Illustrator 24.1.0, SVG Export Plug-In . SVG Version: 6.00 Build 0)  -->
<svg version="1.1" id="Layer_1" xmlns="http://www.w3.org/2000/svg" xmlns:xlink="http://www.w3.org/1999/xlink" x="0px" y="0px"
	 viewBox="0 0 48.8 66.6" style="enable-background:new 0 0 48.8 66.6;" xml:space="preserve">
<style type="text/css">
	.st0{fill:url(#SVGID_1_);stroke:#D45D6F;stroke-linecap:round;stroke-miterlimit:10;stroke-dasharray:3;}
	.st1{fill:#D45D6F;}
	.st2{fill:#FFFFFF;}
</style>
<linearGradient id="SVGID_1_" gradientUnits="userSpaceOnUse" x1="-700.658" y1="-239.0272" x2="-679.408" y2="-217.7772" gradientTransform="matrix(-0.71 0.71 -0.71 -0.71 -636.1273 361.0529)">
	<stop  offset="0.4527" style="stop-color:#8E5565"/>
	<stop  offset="0.5702" style="stop-color:#895665;stop-opacity:0.7854"/>
	<stop  offset="0.708" style="stop-color:#7B5866;stop-opacity:0.5336"/>
	<stop  offset="0.8554" style="stop-color:#635D68;stop-opacity:0.2642"/>
	<stop  offset="1" style="stop-color:#45626A;stop-opacity:0"/>
</linearGradient>
<polyline class="st0" points="0.5,66.1 33.4,33.2 0.7,0.5 "/>
<circle class="st1" cx="33.4" cy="33.2" r="15.4"/>
<path class="st2" d="M24.3,38.8l4.2-2.4v0.2c0,1.5,1.2,2.7,2.7,2.7h9.9c1.5,0,2.7-1.2,2.7-2.7v-6.7c0-1.5-1.2-2.7-2.7-2.7h-9.9
	c-1.5,0-2.7,1.2-2.7,2.6c0,0,0,0,0,0V30l-4.2-2.4c-0.4-0.2-0.9-0.1-1.2,0.3c0,0,0,0,0,0C23.1,28,23,28.2,23,28.3v4.9V38
	c0,0.5,0.4,0.8,0.9,0.8C24,38.9,24.2,38.9,24.3,38.8z"/>
</svg>
