<?xml version="1.0" encoding="utf-8"?>
<!-- Generator: Adobe Illustrator 24.1.0, SVG Export Plug-In . SVG Version: 6.00 Build 0)  -->
<svg version="1.1" id="Layer_1" xmlns="http://www.w3.org/2000/svg" xmlns:xlink="http://www.w3.org/1999/xlink" x="0px" y="0px"
	 viewBox="0 0 62.4 62.1" style="enable-background:new 0 0 62.4 62.1;" xml:space="preserve">
<style type="text/css">
	.st0{fill:url(#SVGID_1_);stroke:#D45D6F;stroke-linecap:round;stroke-miterlimit:10;stroke-dasharray:3;}
	.st1{fill:#D45D6F;}
	.st2{fill:#FFFFFF;}
</style>
<linearGradient id="SVGID_1_" gradientUnits="userSpaceOnUse" x1="-1131.6074" y1="28.065" x2="-1110.3574" y2="6.815" gradientTransform="matrix(0 -1.0041 -1.0041 0 45.81 -1089.2687)">
	<stop  offset="0.4527" style="stop-color:#8E5565"/>
	<stop  offset="0.5702" style="stop-color:#895665;stop-opacity:0.7854"/>
	<stop  offset="0.708" style="stop-color:#7B5866;stop-opacity:0.5336"/>
	<stop  offset="0.8554" style="stop-color:#635D68;stop-opacity:0.2642"/>
	<stop  offset="1" style="stop-color:#45626A;stop-opacity:0"/>
</linearGradient>
<polyline class="st0" points="16.1,2.2 16.1,48.8 62.2,48.7 "/>
<circle class="st1" cx="15.6" cy="46.7" r="15.4"/>
<path class="st2" d="M18,36.3L16.8,41l-0.1-0.1c-1.1-1.1-2.8-1.1-3.8,0l0,0l-7,7c-1.1,1.1-1.1,2.8,0,3.8l4.7,4.7
	c1.1,1.1,2.8,1.1,3.8,0l7-7c1.1-1.1,1.1-2.8,0-3.8l0,0l-0.1-0.1l4.7-1.3c0.4-0.1,0.7-0.6,0.6-1.1c0-0.1-0.1-0.3-0.2-0.4l-3.5-3.5
	l-3.5-3.5c-0.4-0.4-0.8-0.3-1.2,0.1C18.2,36,18,36.2,18,36.3z"/>
</svg>
