<?xml version="1.0" encoding="utf-8"?>
<!-- Generator: Adobe Illustrator 24.1.0, SVG Export Plug-In . SVG Version: 6.00 Build 0)  -->
<svg version="1.1" id="Layer_1" xmlns="http://www.w3.org/2000/svg" xmlns:xlink="http://www.w3.org/1999/xlink" x="0px" y="0px"
	 viewBox="0 0 62.4 62.1" style="enable-background:new 0 0 62.4 62.1;" xml:space="preserve">
<style type="text/css">
	.st0{fill:url(#SVGID_1_);stroke:#D45D6F;stroke-linecap:round;stroke-miterlimit:10;stroke-dasharray:3;}
	.st1{fill:#D45D6F;}
	.st2{fill:#FFFFFF;}
</style>
<linearGradient id="SVGID_1_" gradientUnits="userSpaceOnUse" x1="-679.1655" y1="-241.3674" x2="-657.9155" y2="-220.1174" gradientTransform="matrix(0.71 -0.71 0.71 0.71 675.8483 -279.7917)">
	<stop  offset="0.4527" style="stop-color:#8E5565"/>
	<stop  offset="0.5702" style="stop-color:#895665;stop-opacity:0.7854"/>
	<stop  offset="0.708" style="stop-color:#7B5866;stop-opacity:0.5336"/>
	<stop  offset="0.8554" style="stop-color:#635D68;stop-opacity:0.2642"/>
	<stop  offset="1" style="stop-color:#45626A;stop-opacity:0"/>
</linearGradient>
<polyline class="st0" points="52.8,-1.7 19.9,31.2 52.6,63.8 "/>
<circle class="st1" cx="21" cy="29.4" r="15.4"/>
<path class="st2" d="M30.1,23.8l-4.2,2.4V26c0-1.5-1.2-2.7-2.7-2.7c0,0,0,0,0,0h-9.9c-1.5,0-2.7,1.2-2.7,2.7l0,6.7
	c0,1.5,1.2,2.7,2.7,2.7h9.9c1.5,0,2.7-1.2,2.7-2.7c0,0,0,0,0,0v-0.2l4.2,2.4c0.4,0.2,0.9,0.1,1.2-0.3c0.1-0.1,0.1-0.3,0.1-0.4l0-4.9
	v-4.9c0-0.5-0.4-0.8-0.9-0.8C30.4,23.7,30.2,23.7,30.1,23.8z"/>
</svg>
