<?xml version="1.0" encoding="utf-8"?>
<!-- Generator: Adobe Illustrator 24.1.0, SVG Export Plug-In . SVG Version: 6.00 Build 0)  -->
<svg version="1.1" id="Layer_1" xmlns="http://www.w3.org/2000/svg" xmlns:xlink="http://www.w3.org/1999/xlink" x="0px" y="0px"
	 viewBox="0 0 66.6 48.8" style="enable-background:new 0 0 66.6 48.8;" xml:space="preserve">
<style type="text/css">
	.st0{fill:url(#SVGID_1_);stroke:#D45D6F;stroke-linecap:round;stroke-miterlimit:10;stroke-dasharray:3;}
	.st1{fill:#D45D6F;}
	.st2{fill:#FFFFFF;}
</style>
<linearGradient id="SVGID_1_" gradientUnits="userSpaceOnUse" x1="-659.4043" y1="-250.8762" x2="-638.1543" y2="-229.6262" gradientTransform="matrix(-0.71 -0.71 0.71 -0.71 -256.645 -615.2549)">
	<stop  offset="0.4527" style="stop-color:#8E5565"/>
	<stop  offset="0.5702" style="stop-color:#895665;stop-opacity:0.7854"/>
	<stop  offset="0.708" style="stop-color:#7B5866;stop-opacity:0.5336"/>
	<stop  offset="0.8554" style="stop-color:#635D68;stop-opacity:0.2642"/>
	<stop  offset="1" style="stop-color:#45626A;stop-opacity:0"/>
</linearGradient>
<polyline class="st0" points="0.6,0.5 33.5,33.4 66.2,0.7 "/>
<circle class="st1" cx="33.4" cy="33.4" r="15.4"/>
<path class="st2" d="M27.8,24.3l2.4,4.2H30c-1.5,0-2.7,1.2-2.7,2.7v9.9c0,1.5,1.2,2.7,2.7,2.7h6.7c1.5,0,2.7-1.2,2.7-2.7v-9.9
	c0-1.5-1.2-2.7-2.6-2.7c0,0,0,0,0,0h-0.2l2.5-4.2c0.2-0.4,0.1-0.9-0.3-1.2c-0.1-0.1-0.3-0.1-0.4-0.1h-4.9h-4.9
	c-0.5,0-0.8,0.4-0.8,0.8c0,0,0,0,0,0C27.7,24,27.7,24.2,27.8,24.3z"/>
</svg>
