<?xml version="1.0" encoding="utf-8"?>
<!-- Generator: Adobe Illustrator 24.1.0, SVG Export Plug-In . SVG Version: 6.00 Build 0)  -->
<svg version="1.1" id="Layer_1" xmlns="http://www.w3.org/2000/svg" xmlns:xlink="http://www.w3.org/1999/xlink" x="0px" y="0px"
	 viewBox="0 0 62.4 62.1" style="enable-background:new 0 0 62.4 62.1;" xml:space="preserve">
<style type="text/css">
	.st0{fill:url(#SVGID_1_);stroke:#D45D6F;stroke-linecap:round;stroke-miterlimit:10;stroke-dasharray:3;}
	.st1{fill:#D45D6F;}
	.st2{fill:#FFFFFF;}
</style>
<linearGradient id="SVGID_1_" gradientUnits="userSpaceOnUse" x1="-690.6517" y1="-230.1835" x2="-669.4017" y2="-208.9335" gradientTransform="matrix(-1.0041 0 0 -1.0041 -648.2318 -186.0169)">
	<stop  offset="0.4527" style="stop-color:#8E5565"/>
	<stop  offset="0.5702" style="stop-color:#895665;stop-opacity:0.7854"/>
	<stop  offset="0.708" style="stop-color:#7B5866;stop-opacity:0.5336"/>
	<stop  offset="0.8554" style="stop-color:#635D68;stop-opacity:0.2642"/>
	<stop  offset="1" style="stop-color:#45626A;stop-opacity:0"/>
</linearGradient>
<polyline class="st0" points="0.5,46.7 47,46.7 47,0.5 "/>
<circle class="st1" cx="47" cy="46.7" r="15.4"/>
<path class="st2" d="M36.7,44.3l4.7,1.3l-0.1,0.1c-1,1-1,2.7,0,3.8l0,0l0,0l7,7c1,1,2.7,1,3.8,0l4.8-4.8c1-1,1-2.7,0-3.8l-7-7
	c-1-1-2.7-1-3.8,0l0,0l0,0L45.8,41l-1.3-4.7c-0.1-0.5-0.6-0.7-1-0.6c-0.1,0-0.3,0.1-0.4,0.2l-3.4,3.5l-3.4,3.4
	c-0.3,0.3-0.3,0.9,0,1.2C36.4,44.1,36.5,44.2,36.7,44.3z"/>
</svg>
