<?xml version="1.0" encoding="utf-8"?>
<!-- Generator: Adobe Illustrator 24.1.0, SVG Export Plug-In . SVG Version: 6.00 Build 0)  -->
<svg version="1.1" id="Layer_1" xmlns="http://www.w3.org/2000/svg" xmlns:xlink="http://www.w3.org/1999/xlink" x="0px" y="0px"
	 viewBox="0 0 48.8 66.6" style="enable-background:new 0 0 48.8 66.6;" xml:space="preserve">
<style type="text/css">
	.st0{fill:url(#SVGID_1_);stroke:#D45D6F;stroke-linecap:round;stroke-miterlimit:10;stroke-dasharray:3;}
	.st1{fill:#D45D6F;}
	.st2{fill:#FFFFFF;}
</style>
<linearGradient id="SVGID_1_" gradientUnits="userSpaceOnUse" x1="-684.253" y1="-237.1026" x2="-663.003" y2="-215.8526" gradientTransform="matrix(0.71 -0.71 0.71 0.71 672.3983 -284.1817)">
	<stop  offset="0.4527" style="stop-color:#8E5565"/>
	<stop  offset="0.5702" style="stop-color:#895665;stop-opacity:0.7854"/>
	<stop  offset="0.708" style="stop-color:#7B5866;stop-opacity:0.5336"/>
	<stop  offset="0.8554" style="stop-color:#635D68;stop-opacity:0.2642"/>
	<stop  offset="1" style="stop-color:#45626A;stop-opacity:0"/>
</linearGradient>
<polyline class="st0" points="48.8,0.5 15.9,33.4 48.5,66.1 "/>
<circle class="st1" cx="15.9" cy="33.4" r="15.4"/>
<path class="st2" d="M25,27.8l-4.2,2.4V30c0-1.5-1.2-2.7-2.7-2.7H8.2c-1.5,0-2.7,1.2-2.7,2.7v6.7c0,1.5,1.2,2.7,2.7,2.7h9.9
	c1.5,0,2.7-1.2,2.7-2.6c0,0,0,0,0,0v-0.2L25,39c0.4,0.2,0.9,0.1,1.2-0.3c0,0,0,0,0,0c0.1-0.1,0.1-0.3,0.1-0.4v-4.9v-4.9
	c0-0.5-0.4-0.8-0.9-0.8C25.2,27.7,25.1,27.7,25,27.8z"/>
</svg>
